<svg width="618" height="192" viewBox="0 0 618 192" fill="none" xmlns="http://www.w3.org/2000/svg">
<path d="M207.2 16.95H73.5201C66.8043 16.95 61.3601 22.3942 61.3601 29.11V162.79C61.3601 169.506 66.8043 174.95 73.5201 174.95H207.2C213.916 174.95 219.36 169.506 219.36 162.79V29.11C219.36 22.3942 213.916 16.95 207.2 16.95Z" fill="#FFDD00"/>
<path d="M164.97 130.65V129.98C164.97 105.58 164.97 81.18 164.97 56.79C164.97 56.05 164.97 56.0499 164.21 56.0499C147.02 56.0499 129.83 56.0499 112.65 56.0499C112.51 56.0499 112.36 56.06 112.13 56.08C112.13 56.33 112.13 56.5599 112.13 56.7799C112.13 61.5299 112.13 66.28 112.13 71.04C112.13 73.62 110.58 75.6599 108.15 76.3399C104.82 77.2699 101.37 74.7399 101.34 71.2699C101.3 66.0599 101.29 60.85 101.34 55.65C101.39 50.75 105.2 46.34 110.04 45.47C110.77 45.34 111.52 45.27 112.26 45.27C129.78 45.26 147.29 45.26 164.81 45.27C169.89 45.27 174.09 48.4299 175.37 53.2799C175.64 54.2899 175.76 55.36 175.76 56.41C175.78 80.4599 175.78 104.51 175.77 128.57C175.77 129.81 175.79 131.05 175.66 132.27C175.24 136.39 171.78 140.24 167.75 141.2C165.23 141.8 162.81 141.59 160.45 140.53C156.12 138.58 151.8 136.63 147.45 134.71C146.99 134.5 146.43 134.41 145.92 134.41C128.46 134.39 111 134.4 93.54 134.4C91.28 134.4 89.1699 133.86 87.3099 132.55C84.2799 130.43 82.59 127.52 82.58 123.79C82.55 113.12 82.5799 102.45 82.5599 91.7799C82.5599 90.6299 82.4799 89.5 82.9299 88.41C83.7499 86.43 85.8999 85.11 87.7799 85.11C104.22 85.14 120.66 85.14 137.1 85.11C139.52 85.11 141.96 86.92 142.38 89.58C142.82 92.38 141.24 94.91 138.58 95.65C137.87 95.85 137.11 95.9199 136.37 95.9199C122.44 95.9399 108.51 95.93 94.58 95.93C94.36 95.93 94.1399 95.95 93.9299 95.93C93.4299 95.87 93.3199 96.0999 93.3199 96.5599C93.3399 99.7299 93.3199 102.9 93.3199 106.06C93.3199 111.63 93.3199 117.2 93.3199 122.77C93.3199 123.57 93.3199 123.57 94.1399 123.57C111.82 123.57 129.5 123.57 147.18 123.56C148.65 123.56 149.98 123.84 151.31 124.52C153.65 125.7 156.07 126.69 158.46 127.76C160.42 128.64 162.38 129.51 164.34 130.39C164.5 130.46 164.67 130.53 164.95 130.65H164.97Z" fill="#303863"/>
<path d="M199.76 95.94C199.76 110.34 199.76 124.74 199.76 139.14C199.76 141.82 198.19 143.86 195.62 144.53C192.42 145.37 189.13 142.91 189 139.58C189 139.43 189 139.29 189 139.14C189 110.34 189 81.54 189 52.74C189 50.46 189.99 48.76 192.01 47.76C195.56 45.99 199.69 48.55 199.76 52.52C199.78 53.72 199.76 54.92 199.76 56.12C199.76 69.39 199.76 82.66 199.76 95.93V95.94Z" fill="#303863"/>
<path d="M278.86 108.67L273.88 124.46H261.39L284.36 56.02H301.49L324.32 124.46H310.73L305.66 108.67H278.86ZM281.92 99.19H302.69L292.26 66.74L281.92 99.19Z" fill="black"/>
<path d="M361.9 84.7399C359.48 84.7699 357.26 85.0099 355.25 85.4599C353.24 85.9099 351.52 86.6599 350.08 87.7099C348.64 88.7599 347.54 90.1699 346.75 91.9499C345.97 93.7199 345.58 95.9499 345.58 98.6299V124.47H333.62V74.4099H345.58V83.7899C347.27 80.3799 349.46 77.8499 352.14 76.1999C354.82 74.5599 358.07 73.6999 361.9 73.6399V84.7399Z" fill="black"/>
<path d="M400.14 118.34C398.26 120.89 396 122.71 393.37 123.8C390.74 124.88 387.86 125.43 384.73 125.43C382.37 125.43 380.17 125.13 378.12 124.52C376.07 123.91 374.31 122.99 372.81 121.74C371.31 120.49 370.13 118.95 369.27 117.1C368.41 115.25 367.98 113.08 367.98 110.59C367.98 107.88 368.51 105.61 369.56 103.79C370.61 101.97 372.01 100.47 373.75 99.2901C375.49 98.1101 377.47 97.2101 379.71 96.5901C381.94 95.9701 384.25 95.5101 386.63 95.2301C389.01 94.9501 391.36 94.7801 393.69 94.7501C396.02 94.7201 398.14 94.7001 400.06 94.7001C400.09 92.8801 400 91.2101 399.8 89.6701C399.59 88.1401 399.15 86.8201 398.46 85.7201C397.77 84.6201 396.79 83.7701 395.52 83.1601C394.24 82.5501 392.52 82.2501 390.35 82.2501C389.14 82.2501 387.96 82.4101 386.81 82.7301C385.66 83.0501 384.6 83.5101 383.63 84.1201C382.66 84.7301 381.8 85.4801 381.07 86.3701C380.34 87.2601 379.75 88.2801 379.3 89.4301L369.97 85.4101C370.83 83.2101 372.02 81.3401 373.54 79.8101C375.06 78.2801 376.77 77.0301 378.69 76.0801C380.61 75.1301 382.65 74.4301 384.84 74.0001C387.03 73.5701 389.24 73.3501 391.47 73.3501C394.47 73.3501 397.22 73.7101 399.73 74.4301C402.23 75.1501 404.4 76.2601 406.22 77.7601C408.04 79.2601 409.45 81.1701 410.46 83.4801C411.46 85.7901 411.97 88.5501 411.97 91.7401V124.48H400.2V118.35L400.14 118.34ZM379.75 110.11C379.75 111.36 379.96 112.41 380.37 113.27C380.78 114.13 381.35 114.83 382.07 115.38C382.79 115.92 383.63 116.31 384.61 116.55C385.58 116.79 386.64 116.91 387.79 116.91C389.32 116.91 390.82 116.7 392.29 116.29C393.76 115.87 395.07 115.26 396.21 114.45C397.35 113.64 398.28 112.6 398.99 111.34C399.69 110.08 400.04 108.62 400.04 106.96V102.08H394.06C392.69 102.08 391.17 102.15 389.51 102.29C387.85 102.43 386.3 102.78 384.84 103.32C383.39 103.86 382.18 104.67 381.2 105.74C380.23 106.81 379.74 108.27 379.74 110.12L379.75 110.11Z" fill="black"/>
<path d="M450.25 124.08C448.97 124.46 447.67 124.77 446.33 124.99C444.99 125.21 443.65 125.32 442.31 125.32C437.4 125.32 433.6 124.08 430.92 121.59C428.24 119.1 426.9 115.37 426.9 110.39V83.2099H420.2V74.3999H426.9V64.0599L438.86 58.8899V74.3999H449.82V83.2099H438.86V109.34C438.86 111.32 439.3 112.87 440.18 113.98C441.06 115.1 442.55 115.65 444.66 115.65C445.58 115.65 446.52 115.58 447.46 115.44C448.4 115.3 449.33 115.05 450.26 114.7V124.08H450.25Z" fill="black"/>
<path d="M485.81 124.08C484.53 124.46 483.23 124.77 481.89 124.99C480.55 125.21 479.21 125.32 477.87 125.32C472.96 125.32 469.16 124.08 466.48 121.59C463.8 119.1 462.46 115.37 462.46 110.39V83.2099H455.76V74.3999H462.46V64.0599L474.42 58.8899V74.3999H485.38V83.2099H474.42V109.34C474.42 111.32 474.86 112.87 475.74 113.98C476.62 115.1 478.11 115.65 480.22 115.65C481.14 115.65 482.08 115.58 483.02 115.44C483.96 115.3 484.89 115.05 485.82 114.7V124.08H485.81Z" fill="black"/>
<path d="M524.91 118.34C523.03 120.89 520.77 122.71 518.14 123.8C515.51 124.88 512.63 125.43 509.5 125.43C507.14 125.43 504.94 125.13 502.89 124.52C500.84 123.91 499.08 122.99 497.58 121.74C496.08 120.49 494.9 118.95 494.04 117.1C493.18 115.25 492.75 113.08 492.75 110.59C492.75 107.88 493.28 105.61 494.33 103.79C495.38 101.97 496.78 100.47 498.52 99.2901C500.26 98.1101 502.24 97.2101 504.48 96.5901C506.71 95.9701 509.02 95.5101 511.4 95.2301C513.78 94.9501 516.13 94.7801 518.46 94.7501C520.79 94.7201 522.91 94.7001 524.83 94.7001C524.86 92.8801 524.77 91.2101 524.57 89.6701C524.36 88.1401 523.92 86.8201 523.23 85.7201C522.54 84.6201 521.56 83.7701 520.29 83.1601C519.01 82.5501 517.29 82.2501 515.12 82.2501C513.91 82.2501 512.73 82.4101 511.58 82.7301C510.43 83.0501 509.37 83.5101 508.4 84.1201C507.43 84.7301 506.57 85.4801 505.84 86.3701C505.11 87.2601 504.52 88.2801 504.07 89.4301L494.74 85.4101C495.6 83.2101 496.79 81.3401 498.31 79.8101C499.83 78.2801 501.54 77.0301 503.46 76.0801C505.38 75.1301 507.42 74.4301 509.61 74.0001C511.8 73.5701 514.01 73.3501 516.24 73.3501C519.24 73.3501 521.99 73.7101 524.5 74.4301C527 75.1501 529.17 76.2601 530.99 77.7601C532.81 79.2601 534.22 81.1701 535.23 83.4801C536.23 85.7901 536.74 88.5501 536.74 91.7401V124.48H524.97V118.35L524.91 118.34ZM504.52 110.11C504.52 111.36 504.73 112.41 505.14 113.27C505.55 114.13 506.12 114.83 506.84 115.38C507.56 115.92 508.4 116.31 509.38 116.55C510.35 116.79 511.41 116.91 512.56 116.91C514.09 116.91 515.59 116.7 517.06 116.29C518.53 115.87 519.84 115.26 520.98 114.45C522.12 113.64 523.05 112.6 523.76 111.34C524.46 110.08 524.81 108.62 524.81 106.96V102.08H518.83C517.46 102.08 515.94 102.15 514.28 102.29C512.62 102.43 511.07 102.78 509.61 103.32C508.16 103.86 506.95 104.67 505.97 105.74C505 106.81 504.51 108.27 504.51 110.12L504.52 110.11Z" fill="black"/>
<path d="M562.91 59.56C562.91 60.55 562.73 61.47 562.38 62.31C562.03 63.16 561.54 63.87 560.92 64.46C560.3 65.05 559.56 65.51 558.69 65.85C557.82 66.19 556.9 66.35 555.91 66.35C554.92 66.35 554.04 66.18 553.18 65.85C552.32 65.52 551.56 65.04 550.91 64.44C550.26 63.83 549.74 63.12 549.38 62.29C549.01 61.46 548.83 60.55 548.83 59.56C548.83 58.57 549.01 57.66 549.38 56.83C549.75 56 550.25 55.28 550.89 54.68C551.53 54.07 552.28 53.6 553.14 53.27C554 52.94 554.93 52.77 555.92 52.77C556.91 52.77 557.79 52.94 558.65 53.27C559.51 53.6 560.25 54.08 560.88 54.68C561.5 55.29 562 56 562.36 56.83C562.73 57.66 562.91 58.57 562.91 59.56ZM562 74.4V124.46H550.04V74.4H562Z" fill="black"/>
</svg>
