<svg width="81" height="80" viewBox="0 0 81 80" fill="none" xmlns="http://www.w3.org/2000/svg">
<rect x="0.360107" width="80" height="80" rx="40" fill="black"/>
<path d="M60.0374 43.0527C61.9009 41.9252 55.4498 40.1872 55.4498 25.6004C55.4498 18.2303 49.4107 13 40.9001 13C40.8278 13 40.1721 13 40.0999 13C31.5892 13 25.5499 18.2303 25.5499 25.6004C25.5499 40.1871 19.0991 41.9252 20.9624 43.0527C21.3728 43.3008 25.5309 43.4615 31.9163 43.5354C34.1897 44.84 37.2079 45.6349 40.5198 45.6349C43.8322 45.6349 46.8509 44.8397 49.1242 43.5348C55.49 43.4607 59.628 43.3 60.0374 43.0527Z" fill="#FFDD00"/>
<path d="M32.5924 49.7276C32.5043 48.7524 31.5645 47.9846 30.4158 47.9846C30.2318 47.9846 30.054 48.0064 29.8834 48.0437C29.8523 48.0496 29.8204 48.0533 29.7898 48.0606C28.1192 48.4621 25.9819 49.0217 23.2917 49.8618C15.3029 52.3565 13 54.9004 13 56.6355C13 58.3681 13 67.9999 13 67.9999H38.041C36.3288 64.1363 33.8253 54.5609 32.6798 50.0128C32.655 49.9141 32.6256 49.8194 32.5924 49.7276Z" fill="#FFDD00"/>
<path d="M57.708 49.8618C55.0178 49.0217 52.8806 48.462 51.2099 48.0606C51.1793 48.0533 51.1475 48.0492 51.1164 48.0437C50.9458 48.0065 50.7679 47.9846 50.5839 47.9846C49.4351 47.9846 48.4954 48.7526 48.4074 49.7276C48.3742 49.8194 48.3445 49.9141 48.3199 50.0125C47.1745 54.5608 44.6709 64.1361 42.9585 67.9997H67.9998C67.9998 67.9997 67.9998 58.3679 67.9998 56.6353C67.9998 54.9004 65.6969 52.3565 57.708 49.8618Z" fill="#FFDD00"/>
</svg>
