<svg width="800" height="764" viewBox="0 0 800 764" fill="none" xmlns="http://www.w3.org/2000/svg">
<path d="M400 545.636C379.918 545.636 363.636 561.918 363.636 582V727.455C363.636 747.537 379.918 763.818 400 763.818C420.082 763.818 436.364 747.537 436.364 727.455V582C436.364 561.918 420.082 545.636 400 545.636Z" fill="#FFFCFC"/>
<path d="M400 0.181885C379.918 0.181885 363.636 16.4631 363.636 36.5455V109.273C363.636 129.355 379.918 145.636 400 145.636C420.082 145.636 436.364 129.355 436.364 109.273V36.5455C436.364 16.4631 420.082 0.181885 400 0.181885Z" fill="#FFFCFC"/>
<path d="M218.182 363.818C218.182 343.736 201.901 327.455 181.818 327.455H36.3636C16.2812 327.455 0 343.736 0 363.818C0 383.901 16.2812 400.182 36.3636 400.182H181.818C201.901 400.182 218.182 383.901 218.182 363.818Z" fill="#FFFCFC"/>
<path d="M763.636 327.455H618.182C598.099 327.455 581.818 343.736 581.818 363.818C581.818 383.901 598.099 400.182 618.182 400.182H763.636C783.719 400.182 800 383.901 800 363.818C800 343.736 783.719 327.455 763.636 327.455Z" fill="#FFFCFC"/>
<path d="M220.005 492.383L117.156 595.236C102.958 609.438 102.958 632.461 117.156 646.662C124.257 653.762 133.564 657.312 142.87 657.312C152.177 657.312 161.484 653.762 168.584 646.662L271.435 543.809C285.634 529.607 285.634 506.584 271.433 492.383C257.232 478.182 234.208 478.182 220.005 492.383Z" fill="#FFFCFC"/>
<path d="M554.276 245.903C563.583 245.903 572.89 242.354 579.988 235.251L682.839 132.398C697.04 118.197 697.04 95.1735 682.839 80.9723C668.64 66.7735 645.615 66.7711 631.413 80.9723L528.562 183.826C514.361 198.027 514.361 221.05 528.562 235.251C535.663 242.354 544.97 245.903 554.276 245.903Z" fill="#FFFCFC"/>
<path d="M579.988 492.383C565.791 478.184 542.764 478.182 528.562 492.381C514.361 506.582 514.361 529.605 528.562 543.806L631.413 646.66C638.514 653.76 647.821 657.309 657.127 657.309C666.432 657.309 675.741 653.758 682.839 646.66C697.04 632.458 697.04 609.435 682.839 595.234L579.988 492.383Z" fill="#FFFCFC"/>
</svg>
