<svg width="81" height="80" viewBox="0 0 81 80" fill="none" xmlns="http://www.w3.org/2000/svg">
<rect x="1.40869" y="0.5" width="79" height="79" rx="39.5" fill="black"/>
<rect x="1.40869" y="0.5" width="79" height="79" rx="39.5" stroke="black"/>
<path d="M60.341 44.8428C52.4482 42.7725 49.1672 40.198 49.1672 40.198L48.903 40.4002C46.5591 42.1719 43.9667 43.2134 41.605 43.2134H41.3822C39.0207 43.2134 36.4283 42.1719 34.0843 40.4002L33.82 40.198C33.82 40.198 30.5393 42.7724 22.6463 44.8428C10.9948 48.3381 14.4933 62.5626 14.49 62.6728C14.8569 64.257 15.0708 64.8015 15.2572 64.8626C26.9578 69.0457 56.0297 69.0457 67.7304 64.8626C67.9168 64.8015 68.1307 64.257 68.4977 62.6728C68.4943 62.5626 72.0396 48.3946 60.341 44.8428Z" fill="#FFDD00"/>
<path d="M53.7301 26.696L53.6323 26.6109C52.9768 26.1288 53.028 26.1565 53.028 26.1565C53.028 26.1565 54.1715 21.5232 53.2546 19.3321C51.815 15.8329 43.2166 13.4876 41.492 13.215C41.4923 13.2124 40.443 13.0438 40.376 13.0435C40.376 13.0435 39.0195 12.8232 37.4473 13.3739C36.4234 13.6903 31.0702 15.6397 29.5508 19.3321C28.634 21.5232 29.7774 26.1565 29.7774 26.1565C29.7774 26.1565 29.8287 26.1288 29.173 26.6109L29.0754 26.696C28.6319 27.1004 28.7414 28.3658 29.2262 29.6823C29.6655 31.0012 30.2381 31.3557 30.3753 31.6646C31.7661 36.9085 36.6021 41.3859 41.5303 41.3859C46.4585 41.3859 51.0391 36.9085 52.4299 31.6646C52.5672 31.3558 53.1398 31.0012 53.5791 29.6823C54.0639 28.3657 54.1862 27.0135 53.7301 26.696Z" fill="#FFDD00"/>
</svg>
