<svg aria-hidden="true" style="position: absolute; width: 0; height: 0; overflow: hidden;" version="1.1" xmlns="http://www.w3.org/2000/svg" xmlns:xlink="http://www.w3.org/1999/xlink">
<symbol id="icon-hide" viewBox="0 0 23 23" width="23" height="23" fill="none">
    <path d="M1.33334 1.33337L21.3333 21.3334" stroke="black" stroke-width="2" stroke-linecap="round" stroke-linejoin="round"/>
    <path d="M6.04611 6.05597C2.99813 8.12864 1.33334 11.3334 1.33334 11.3334C1.33334 11.3334 4.9697 18.3334 11.3333 18.3334C13.3836 18.3334 15.1507 17.6068 16.6044 16.6218M10.3333 4.39159C10.6587 4.3535 10.9921 4.33337 11.3333 4.33337C17.6969 4.33337 21.3333 11.3334 21.3333 11.3334C21.3333 11.3334 20.6415 12.6651 19.3333 14.1669" stroke="black" stroke-width="2" stroke-linecap="round" stroke-linejoin="round"/>
    <path d="M13.3333 13.5696C12.8025 14.0446 12.1017 14.3335 11.3333 14.3335C9.67644 14.3335 8.33334 12.9904 8.33334 11.3335C8.33334 10.5098 8.66527 9.76368 9.20266 9.22156" stroke="black" stroke-width="2" stroke-linecap="round" stroke-linejoin="round"/>
</symbol>
<symbol id="icon-show" viewBox="0 0 23 23" width="23" height="23" fill="none">
    <path d="M1 7.49999C1 7.49999 4.63636 1 11 1C17.3636 1 21 7.49999 21 7.49999" stroke="black" stroke-width="2" stroke-linecap="round" stroke-linejoin="round"/>
    <path d="M1 7.5C1 7.5 4.63636 14 11 14C17.3636 14 21 7.5 21 7.5" stroke="black" stroke-width="2" stroke-linecap="round" stroke-linejoin="round"/>
    <path d="M11 9.93749C12.5062 9.93749 13.7273 8.84619 13.7273 7.5C13.7273 6.1538 12.5062 5.0625 11 5.0625C9.49375 5.0625 8.27271 6.1538 8.27271 7.5C8.27271 8.84619 9.49375 9.93749 11 9.93749Z" stroke="black" stroke-width="2" stroke-linecap="round" stroke-linejoin="round"/>
</symbol>
</svg>
