<svg width="40" height="40" viewBox="0 0 40 40" fill="none" xmlns="http://www.w3.org/2000/svg">
<path d="M0 16.6496C0 25.8325 7.46929 33.2951 16.6421 33.2951C20.8681 33.2951 24.7338 31.7059 27.674 29.101L38.2801 39.7092C38.4767 39.9058 38.7305 40.0041 38.9926 40.0041C39.2547 40.0041 39.5086 39.9058 39.7052 39.7092C40.0983 39.316 40.0983 38.6852 39.7052 38.292L29.0909 27.6838C31.6953 24.743 33.2842 20.8847 33.2842 16.6496C33.2842 7.46671 25.8149 0.00408936 16.6421 0.00408936C7.46929 0.00408936 0 7.46671 0 16.6496ZM31.2776 16.6496C31.2776 24.7184 24.7093 31.2881 16.6421 31.2881C8.57494 31.2881 2.00655 24.7184 2.00655 16.6496C2.00655 8.58078 8.57494 2.01105 16.6421 2.01105C24.7093 2.01105 31.2776 8.57259 31.2776 16.6496Z" fill="#FFDD00"/>
</svg>
